<svg width="122" height="44" viewBox="0 0 122 44" fill="none" xmlns="http://www.w3.org/2000/svg">
<g filter="url(#filter0_d_109_335)">
<rect x="4" y="2" width="114" height="36" rx="10" fill="white"/>
</g>
<path d="M27.8929 14.7348C28.3545 15.6483 28.6145 16.6804 28.6145 17.7727C28.6145 21.5131 25.5668 24.5452 21.8072 24.5452C18.0476 24.5452 15 21.5131 15 17.7727C15 14.0323 18.0476 11.0002 21.8072 11.0002C23.044 11.0002 24.2037 11.3283 25.203 11.9016L25.5358 11.5705C26.3004 10.8098 27.54 10.8098 28.3046 11.5705C29.0692 12.3313 29.0692 13.5645 28.3046 14.3252L27.8929 14.7348Z" fill="url(#paint0_radial_109_335)"/>
<path d="M17.5329 27.647C17.5329 26.5713 18.4094 25.6992 19.4907 25.6992H24.1238C25.2051 25.6992 26.0816 26.5713 26.0816 27.647C26.0816 28.7227 25.2051 29.5948 24.1238 29.5948H19.4907C18.4094 29.5948 17.5329 28.7227 17.5329 27.647Z" fill="url(#paint1_radial_109_335)"/>
<path d="M41.7112 14.5954V23.7933H40.1948V14.5954H41.7112Z" fill="black"/>
<path d="M47.4001 16.3822C47.9766 16.3822 48.4909 16.5014 48.9432 16.7394C49.4043 16.9777 49.7635 17.3306 50.0207 17.7983C50.2778 18.2659 50.4064 18.8304 50.4064 19.4921V23.7933H48.9034V19.7171C48.9034 19.0642 48.7393 18.5658 48.411 18.2217C48.083 17.8688 47.6351 17.6922 47.0676 17.6922C46.5001 17.6922 46.0478 17.8688 45.7108 18.2217C45.3825 18.5658 45.2187 19.0642 45.2187 19.7171V23.7933H43.702V16.5014H45.2187V17.3351C45.467 17.0351 45.7816 16.8013 46.163 16.6335C46.5533 16.466 46.9655 16.3822 47.4001 16.3822Z" fill="black"/>
<path d="M55.2939 16.3822C55.8614 16.3822 56.3623 16.4969 56.7969 16.7264C57.2404 16.9468 57.5863 17.2247 57.8346 17.5601V16.5014H59.3643V23.9124C59.3643 24.5829 59.2224 25.1785 58.9385 25.699C58.6549 26.2285 58.2425 26.643 57.7015 26.943C57.1693 27.243 56.531 27.393 55.786 27.393C54.7927 27.393 53.9681 27.1592 53.3119 26.6917C52.6557 26.2327 52.2831 25.6064 52.1943 24.8124H53.6976C53.8128 25.1918 54.0566 25.4961 54.4292 25.7256C54.8106 25.9638 55.2629 26.0827 55.786 26.0827C56.3978 26.0827 56.8899 25.8976 57.2626 25.5269C57.6437 25.1565 57.8346 24.6182 57.8346 23.9124V22.695C57.5774 23.0388 57.227 23.33 56.7836 23.5683C56.3492 23.7978 55.8526 23.9124 55.2939 23.9124C54.6553 23.9124 54.0699 23.7537 53.538 23.4359C53.0147 23.1096 52.5979 22.6596 52.2876 22.086C51.9861 21.5039 51.8353 20.8465 51.8353 20.1141C51.8353 19.382 51.9861 18.7334 52.2876 18.1688C52.5979 17.6042 53.0147 17.1673 53.538 16.8585C54.0699 16.541 54.6553 16.3822 55.2939 16.3822ZM57.8346 20.1407C57.8346 19.6378 57.7282 19.2011 57.5152 18.8304C57.3112 18.46 57.0407 18.1776 56.7039 17.9834C56.3668 17.7893 56.0033 17.6922 55.6131 17.6922C55.2228 17.6922 54.8593 17.7893 54.5222 17.9834C54.1854 18.1688 53.9104 18.4467 53.6976 18.8171C53.4936 19.1791 53.3915 19.6112 53.3915 20.1141C53.3915 20.617 53.4936 21.0582 53.6976 21.4376C53.9104 21.8169 54.1854 22.1081 54.5222 22.311C54.8681 22.5051 55.2316 22.6022 55.6131 22.6022C56.0033 22.6022 56.3668 22.5051 56.7039 22.311C57.0407 22.1171 57.3112 21.8347 57.5152 21.464C57.7282 21.0848 57.8346 20.6436 57.8346 20.1407Z" fill="black"/>
<path d="M68.0736 19.9686C68.0736 20.242 68.0557 20.4891 68.0204 20.7098H62.4203C62.4646 21.2919 62.6817 21.7597 63.0719 22.1126C63.4622 22.4655 63.9409 22.6421 64.5087 22.6421C65.3245 22.6421 65.901 22.3022 66.2378 21.623H67.874C67.6524 22.2934 67.2488 22.845 66.6636 23.2771C66.0871 23.7007 65.3688 23.9124 64.5087 23.9124C63.8081 23.9124 63.1783 23.7579 62.6197 23.4492C62.0698 23.1316 61.6355 22.6905 61.3161 22.1259C61.0057 21.5523 60.8504 20.8906 60.8504 20.1407C60.8504 19.3908 61.0012 18.7334 61.3027 18.1688C61.6133 17.5952 62.0434 17.1542 62.5932 16.8452C63.1519 16.5365 63.7902 16.3822 64.5087 16.3822C65.2004 16.3822 65.8166 16.5322 66.3576 16.8322C66.8986 17.1322 67.3198 17.5555 67.6214 18.1026C67.9229 18.6408 68.0736 19.2628 68.0736 19.9686ZM66.4907 19.4921C66.4819 18.9363 66.2822 18.4908 65.892 18.1555C65.502 17.8202 65.0184 17.6526 64.4421 17.6526C63.919 17.6526 63.471 17.8202 63.0987 18.1555C62.7261 18.4821 62.5045 18.9275 62.4334 19.4921H66.4907Z" fill="black"/>
<path d="M73.2639 16.3822C73.8404 16.3822 74.3547 16.5014 74.807 16.7394C75.2681 16.9777 75.6273 17.3306 75.8845 17.7983C76.1416 18.2659 76.2702 18.8304 76.2702 19.4921V23.7933H74.7669V19.7171C74.7669 19.0642 74.6031 18.5658 74.2748 18.2217C73.9468 17.8688 73.4989 17.6922 72.9314 17.6922C72.3639 17.6922 71.9116 17.8688 71.5746 18.2217C71.2463 18.5658 71.0825 19.0642 71.0825 19.7171V23.7933H69.5658V16.5014H71.0825V17.3351C71.3308 17.0351 71.6454 16.8013 72.0268 16.6335C72.4171 16.466 72.8293 16.3822 73.2639 16.3822Z" fill="black"/>
<path d="M84.0974 23.7933L81.836 20.6965V23.7933H79.5613V14H81.836V19.4128L84.084 16.4086H86.8907L83.8047 20.1141L86.9174 23.7933H84.0974Z" fill="black"/>
<path d="M87.3318 20.0878C87.3318 19.3291 87.4738 18.6629 87.7576 18.0893C88.0501 17.5159 88.4449 17.0747 88.9415 16.766C89.4382 16.4572 89.9923 16.3027 90.6041 16.3027C91.1275 16.3027 91.584 16.4086 91.9743 16.6203C92.3734 16.8322 92.6794 17.1101 92.8922 17.4542V16.4086H95.1669V23.7933H92.8922V22.7479C92.6706 23.092 92.36 23.3699 91.9609 23.5816C91.5709 23.7933 91.1141 23.8991 90.591 23.8991C89.988 23.8991 89.4382 23.7449 88.9415 23.4359C88.4449 23.1184 88.0501 22.6729 87.7576 22.0993C87.4738 21.5169 87.3318 20.8465 87.3318 20.0878ZM92.8922 20.1011C92.8922 19.5362 92.7326 19.0908 92.4132 18.7642C92.1029 18.4379 91.7217 18.2746 91.2694 18.2746C90.8171 18.2746 90.4312 18.4379 90.112 18.7642C89.8017 19.082 89.6464 19.5232 89.6464 20.0878C89.6464 20.6524 89.8017 21.1023 90.112 21.4377C90.4312 21.764 90.8171 21.9272 91.2694 21.9272C91.7217 21.9272 92.1029 21.764 92.4132 21.4377C92.7326 21.1111 92.8922 20.6657 92.8922 20.1011Z" fill="black"/>
<path d="M99.0871 17.6393C99.3533 17.2335 99.6858 16.916 100.085 16.6865C100.484 16.4482 100.927 16.3293 101.415 16.3293V18.7246H100.79C100.222 18.7246 99.7965 18.8482 99.5129 19.095C99.229 19.3333 99.0871 19.7569 99.0871 20.3657V23.7933H96.8124V16.4086H99.0871V17.6393Z" fill="black"/>
<path d="M106.639 21.8743V23.7933H105.482C104.657 23.7933 104.014 23.5949 103.553 23.1979C103.092 22.7921 102.862 22.1347 102.862 21.226V18.2879H101.957V16.4086H102.862V14.6087H105.136V16.4086H106.626V18.2879H105.136V21.2523C105.136 21.473 105.189 21.6318 105.296 21.7289C105.402 21.8259 105.579 21.8743 105.828 21.8743H106.639Z" fill="black"/>
<path opacity="0.3" d="M34.5363 21.31C34.8999 21.31 35.1947 21.0168 35.1947 20.655C35.1947 20.2933 34.8999 20 34.5363 20C34.1727 20 33.8779 20.2933 33.8779 20.655C33.8779 21.0168 34.1727 21.31 34.5363 21.31Z" fill="black"/>
<defs>
<filter id="filter0_d_109_335" x="0" y="0" width="122" height="44" filterUnits="userSpaceOnUse" color-interpolation-filters="sRGB">
<feFlood flood-opacity="0" result="BackgroundImageFix"/>
<feColorMatrix in="SourceAlpha" type="matrix" values="0 0 0 0 0 0 0 0 0 0 0 0 0 0 0 0 0 0 127 0" result="hardAlpha"/>
<feOffset dy="2"/>
<feGaussianBlur stdDeviation="2"/>
<feComposite in2="hardAlpha" operator="out"/>
<feColorMatrix type="matrix" values="0 0 0 0 0 0 0 0 0 0 0 0 0 0 0 0 0 0 0.05 0"/>
<feBlend mode="normal" in2="BackgroundImageFix" result="effect1_dropShadow_109_335"/>
<feBlend mode="normal" in="SourceGraphic" in2="effect1_dropShadow_109_335" result="shape"/>
</filter>
<radialGradient id="paint0_radial_109_335" cx="0" cy="0" r="1" gradientUnits="userSpaceOnUse" gradientTransform="translate(14.2936 5.93947) rotate(72.9842) scale(39.3544 22.9813)">
<stop stop-color="#FC84E2"/>
<stop offset="1" stop-color="#FFDF34"/>
</radialGradient>
<radialGradient id="paint1_radial_109_335" cx="0" cy="0" r="1" gradientUnits="userSpaceOnUse" gradientTransform="translate(14.2936 7.31373) rotate(67.2117) scale(29.7332 22.1573)">
<stop stop-color="#FC84E2"/>
<stop offset="1" stop-color="#FFDF34"/>
</radialGradient>
</defs>
</svg>
